<svg width="76" height="76" viewBox="0 0 76 76" fill="none" xmlns="http://www.w3.org/2000/svg">
<path d="M43.7193 9C43.3054 9 42.8915 9.09255 42.5236 9.23137C43.3054 9.74039 43.7193 10.4345 43.9492 11.2212C43.9492 11.3137 43.9952 11.4063 43.9952 11.4988C43.9952 11.5914 44.0412 11.6839 44.0412 11.7765C44.0872 13.1184 43.6733 13.3035 43.3974 14.0902C42.9375 15.1082 43.0755 16.2188 43.6273 17.098C43.6733 17.1906 43.7193 17.3294 43.8112 17.422C43.2134 13.5349 46.4324 12.9796 47.0302 11.7765C47.0762 10.7122 46.2025 10.018 45.5127 9.50902C44.8229 9.09255 44.2711 9 43.7193 9ZM48.5478 9.83294C48.5018 10.2031 48.5478 10.1106 48.5018 10.2957C48.5018 10.4345 48.5018 10.5733 48.4558 10.7122C48.4098 10.851 48.4098 10.9435 48.3638 11.0824C48.3178 11.2212 48.2719 11.3137 48.2259 11.4525C48.1799 11.5451 48.1339 11.6376 48.0879 11.7765C48.0419 11.8227 47.9959 11.9153 47.95 11.9616C47.904 12.0078 47.904 12.0541 47.858 12.1004C47.766 12.1929 47.72 12.3318 47.6281 12.4243L47.3521 12.702C47.2602 12.7945 47.1682 12.8871 47.0762 12.9333C46.7543 13.1647 46.3864 13.3498 46.0645 13.5812C45.9726 13.6737 45.8346 13.72 45.7426 13.8125C45.6507 13.9051 45.5587 13.9514 45.4667 14.0439L45.1908 14.3216C45.0988 14.4141 45.0069 14.5067 44.9609 14.6455C44.8689 14.738 44.8229 14.8769 44.731 14.9694C44.685 15.1082 44.639 15.2008 44.547 15.3396C44.501 15.4784 44.455 15.571 44.4091 15.7098C44.3631 15.8486 44.3171 15.9875 44.3171 16.08C44.3171 16.1263 44.3171 16.2188 44.2711 16.2651C44.2711 16.3114 44.2711 16.4039 44.2251 16.4502V17.098C44.2251 17.2369 44.2251 17.3294 44.2711 17.4682C44.2711 17.6071 44.3171 17.6996 44.3631 17.8384C44.4091 17.9773 44.455 18.0698 44.501 18.2086C44.547 18.3012 44.593 18.3475 44.593 18.44L41.0981 17.098C40.5003 16.9129 39.9484 16.7741 39.3506 16.6353C39.0287 16.5427 38.7068 16.4965 38.3849 16.4039C37.4652 16.2188 36.5455 16.08 35.6258 15.9875H35.5338C34.6141 15.8949 33.7404 15.8486 32.8206 15.8486C32.1309 15.8486 31.4871 15.8949 30.8432 15.9412C29.9235 15.9875 29.0038 16.1263 28.0841 16.2651L27.3943 16.4039C26.9345 16.4965 26.4746 16.589 26.0147 16.7278C25.7848 16.7741 25.5549 16.8667 25.325 16.9129C25.095 17.0055 24.8651 17.098 24.6812 17.1906C24.4972 17.2831 24.3593 17.3294 24.1753 17.422C24.1293 17.422 24.1293 17.422 24.0833 17.4682C23.9454 17.5608 23.8074 17.6071 23.6695 17.6996C23.6235 17.6996 23.5775 17.7459 23.5775 17.7459C23.3936 17.8384 23.2556 17.931 23.1176 17.9773C23.0257 18.0235 22.8877 18.0698 22.7957 18.1161C22.7498 18.1624 22.7038 18.1624 22.6578 18.2086C22.5198 18.3012 22.3819 18.3475 22.2439 18.44C22.106 18.5325 21.968 18.5788 21.876 18.6714C21.784 18.7639 21.6461 18.8102 21.5541 18.9027C21.5541 18.9027 21.5081 18.9027 21.5081 18.949C21.4162 18.9953 21.3242 19.0878 21.2322 19.1804L21.1862 19.2267C21.0943 19.2729 21.0483 19.3655 20.9563 19.4118C20.9103 19.4118 20.9103 19.458 20.8643 19.458C20.7724 19.5043 20.7264 19.5969 20.6344 19.6431C20.6344 19.6894 20.5884 19.6894 20.5884 19.6894L20.3125 19.9671L20.2665 20.0133L19.9906 20.291C19.9906 20.291 19.9906 20.3373 19.9446 20.3373L19.7147 20.5686C19.6687 20.6149 19.6227 20.6149 19.6227 20.6612L19.3468 20.9388C19.3468 20.9851 19.3008 20.9851 19.3008 21.0314L18.9329 21.4016L18.8869 21.4478C18.657 21.7255 18.3811 21.9569 18.1052 22.1882C17.8293 22.4196 17.5534 22.651 17.2315 22.8824C16.9096 23.1137 16.6336 23.2988 16.3117 23.4839C15.9898 23.669 15.6679 23.8078 15.346 23.9467C15.0241 24.0855 14.7022 24.2243 14.3803 24.3169C13.7365 24.4557 13.0927 24.7333 12.5409 24.7796C12.5409 24.5482 12.4029 24.5945 12.265 24.5945C12.127 24.6408 11.9891 24.6408 11.8971 24.6871C11.7591 24.7333 11.6672 24.7796 11.5292 24.8259C11.3913 24.8722 11.2993 24.9184 11.1613 25.011C11.0694 25.1035 10.9314 25.1498 10.8394 25.2424C10.7475 25.3349 10.6095 25.4275 10.5175 25.52C10.4256 25.6125 10.2876 25.7051 10.1956 25.7976C10.1037 25.8902 10.0117 25.9827 9.91972 26.1216C9.82774 26.2604 9.73577 26.3529 9.68979 26.4918C9.59782 26.5843 9.55183 26.7231 9.45986 26.862C9.41387 27.0008 9.3219 27.1396 9.27591 27.2784L9.13796 27.6949C9.09197 27.8337 9.09197 27.9263 9.04599 28.0651V28.1114C9 28.2502 9 28.4353 9 28.5278C9.04599 28.4816 9.04599 28.5741 9.04599 28.6667V28.8518C9.04599 28.9443 9.09197 29.0369 9.09197 29.1294C9.13796 29.222 9.13796 29.3145 9.18394 29.4071C9.22993 29.4996 9.27591 29.5922 9.36789 29.6847C9.41387 29.7773 9.50584 29.8698 9.55183 29.9624C9.6438 30.0549 9.73577 30.1475 9.82774 30.1937C9.91972 30.2863 10.0117 30.3788 10.1037 30.4251C10.4715 30.749 10.5635 30.8416 11.0234 31.1192C11.1153 31.1655 11.1613 31.2118 11.2533 31.258H11.2993V31.3506C11.2993 31.4894 11.3453 31.582 11.3913 31.7208C11.4372 31.8596 11.4832 31.9984 11.5292 32.091L11.6672 32.3686C11.6672 32.4149 11.7132 32.4149 11.7132 32.4612C11.7591 32.6 11.8511 32.6925 11.8971 32.7851C11.9891 32.8776 12.0351 33.0165 12.127 33.109L12.4029 33.3867L12.6789 33.6643H12.7248C12.8168 33.7569 12.9088 33.8031 13.0008 33.8957C13.0927 33.9882 13.2307 34.0345 13.3227 34.0808C13.4146 34.1271 13.5526 34.2196 13.6906 34.2659C13.7825 34.3122 13.8745 34.3584 14.0125 34.3584C14.0125 34.3584 14.0584 34.3584 14.0584 34.4047C14.1044 34.4047 14.1964 34.451 14.2424 34.451C14.1964 35.2839 14.1964 36.0706 14.2884 36.3482C14.4263 36.6722 15.1161 35.7004 15.7599 34.6361C15.6679 35.7004 15.622 36.9498 15.7599 37.32C15.9439 37.6902 16.8176 36.4871 17.6453 35.1914C28.406 32.6926 38.247 40.189 39.3046 50.7859C39.1207 49.12 37.0973 48.1945 36.1316 48.4259C35.6718 49.5365 34.89 51.0173 33.6484 51.8965C33.7404 50.8784 33.6944 49.8604 33.5104 48.8424C33.1885 50.2306 32.5447 51.5725 31.625 52.6831C30.1994 52.7757 28.7279 52.0816 27.9921 51.0173C27.9461 50.971 27.9002 50.8784 27.8542 50.8322C27.8082 50.7396 27.7622 50.6008 27.7162 50.5082C27.6702 50.4157 27.6242 50.2769 27.6242 50.1843V49.8604V49.629C27.6242 49.5365 27.6702 49.3976 27.7162 49.3051C27.7622 49.2125 27.7622 49.0737 27.8082 48.9812C27.8542 48.8886 27.9002 48.7498 27.9921 48.6573C28.268 47.9169 28.268 47.3153 27.7622 46.9914L27.4863 46.8525C27.4403 46.8525 27.3483 46.8063 27.3023 46.8063C27.2564 46.8063 27.2104 46.76 27.1644 46.76C27.0724 46.7137 26.9345 46.7137 26.8425 46.6674C26.7505 46.6212 26.6126 46.6212 26.5206 46.6212C26.4286 46.6212 26.2907 46.5749 26.1987 46.5749H25.9688C25.8308 46.5749 25.7388 46.5749 25.6469 46.6212C25.5549 46.6212 25.4169 46.6674 25.325 46.6674C25.233 46.7137 25.095 46.7137 25.0031 46.76C24.9111 46.8063 24.8191 46.8525 24.6812 46.8988L24.4052 47.0376C20.8643 49.3514 22.9797 54.8118 25.3709 56.3851C24.4512 56.5702 23.5315 56.7553 23.2556 56.9404L23.2096 56.9867C23.8534 57.4031 24.5432 57.7271 25.279 58.0047C26.2447 58.3286 27.3023 58.6063 27.7622 58.7451C29.0038 59.0227 30.2914 59.1153 31.579 59.0227C38.2929 58.56 43.8112 53.3773 44.8229 46.6212C44.8689 46.76 44.8689 46.8988 44.9149 47.0376C44.9609 47.3153 45.0069 47.5929 45.0529 47.9169C45.0988 48.0557 45.0988 48.1945 45.0988 48.3333V48.3796C45.0988 48.5184 45.1448 48.6573 45.1448 48.7961C45.1448 48.9812 45.1908 49.12 45.1908 49.3051V51.2486C45.1908 51.3874 45.1448 51.48 45.1448 51.6188V51.7576C45.1448 51.8965 45.0988 52.0353 45.0988 52.2204C45.0529 52.3592 45.0529 52.498 45.0069 52.6369V52.6831C44.9609 52.822 44.9609 52.9608 44.9149 53.0996V53.1459C44.8689 53.2847 44.8689 53.4235 44.8229 53.5624V53.6086L44.685 54.0251V54.0714C44.639 54.2102 44.593 54.3953 44.547 54.5341C44.501 54.6729 44.455 54.8118 44.3631 54.9969C44.3171 55.1357 44.2711 55.3208 44.1791 55.4596C44.1331 55.5984 44.0412 55.7373 43.9952 55.9224C43.9492 56.0612 43.8572 56.2 43.8112 56.3388C43.8112 56.3851 43.7653 56.4314 43.7653 56.4314C43.7653 56.4314 43.7653 56.4776 43.7193 56.4776C42.7536 58.4675 41.282 60.2259 39.4426 61.6141C39.3046 61.7067 39.2127 61.7992 39.0747 61.8918C39.0287 61.938 38.9827 61.938 38.9827 61.9843C38.8908 62.0769 38.7528 62.1231 38.6608 62.2157L38.7068 62.3082C38.9367 62.262 39.1207 62.262 39.3506 62.2157C39.7645 62.1694 40.1324 62.0769 40.5462 61.9843C40.6382 61.9843 40.7762 61.938 40.8681 61.8918C40.9601 61.8918 41.0061 61.8455 41.0981 61.8455C41.19 61.8455 41.328 61.7992 41.42 61.7992C41.512 61.7529 41.6039 61.7529 41.6959 61.7067C43.2134 61.3365 44.685 60.8274 46.1105 60.2259C43.6733 63.5576 40.4543 66.2416 36.6834 68C38.4309 67.8612 40.1784 67.5835 41.8798 67.0745C47.9959 65.2698 53.1464 61.1051 56.2274 55.5059C55.5836 59.0227 54.204 62.4008 52.1347 65.3624C53.6062 64.3906 54.9398 63.2337 56.1814 61.9843C59.5844 58.4212 61.8377 53.84 62.5734 48.9812C63.0793 51.3874 63.2632 53.8863 63.0333 56.3388C74.0239 40.9294 63.953 24.9647 59.7223 20.7537C59.7223 20.7075 59.6763 20.7075 59.6763 20.6612C59.6763 20.8463 59.6763 21.0314 59.6304 21.2165C59.5844 21.5867 59.5384 21.9106 59.4924 22.2345C59.4004 22.5584 59.3085 22.9286 59.2165 23.2525C59.1245 23.5765 58.9866 23.9004 58.8486 24.2243C58.7106 24.5482 58.5727 24.8722 58.3887 25.1498C58.2048 25.4275 58.0208 25.7514 57.8369 26.029C57.653 26.3067 57.423 26.5843 57.1931 26.862C56.9632 27.1396 56.7332 27.371 56.4573 27.6486C56.3194 27.7875 56.1814 27.9263 55.9975 28.0188C55.8595 28.1114 55.7675 28.2039 55.6296 28.3427C55.3537 28.5741 55.0778 28.7592 54.7559 28.9443C54.4799 29.1294 54.158 29.3145 53.8361 29.4533L52.8704 29.8698C52.5485 30.0086 52.2266 30.1012 51.9047 30.1937C51.5828 30.2863 51.215 30.3788 50.8931 30.4251C50.5252 30.4714 50.2033 30.5176 49.8814 30.5639C49.6514 30.5639 49.3755 30.6102 49.1456 30.6102C48.7777 30.6102 48.4558 30.5639 48.1339 30.5639C47.766 30.5176 47.4441 30.4714 47.1222 30.4251C46.7543 30.3788 46.4324 30.2863 46.1105 30.1475C46.4324 30.1012 46.8003 30.1012 47.1222 30.0086C47.4901 29.9624 47.812 29.8698 48.1339 29.7773C48.4558 29.6847 48.8237 29.5922 49.0996 29.4533L50.0653 29.0369C50.3872 28.898 50.6631 28.7129 50.985 28.5278C51.2609 28.3427 51.5828 28.1114 51.8588 27.9263C52.1347 27.6949 52.4106 27.4635 52.6405 27.2322C52.9164 27.0008 53.1464 26.7231 53.3763 26.4918C53.6062 26.2141 53.8361 25.9365 54.0201 25.6588C54.0661 25.6125 54.0661 25.5663 54.1121 25.52C54.25 25.2886 54.434 25.011 54.5719 24.7796C54.7559 24.4557 54.8938 24.178 55.0318 23.8541C55.1697 23.5302 55.3077 23.2063 55.3997 22.8824L55.6756 21.9106C55.7216 21.5404 55.8135 21.2165 55.8135 20.8925C55.8595 20.5224 55.8595 20.1984 55.8595 19.8745C55.8595 19.6431 55.8595 19.3655 55.8135 19.1341C55.7675 18.7639 55.7216 18.44 55.6756 18.1161C55.6296 17.7459 55.5376 17.422 55.4456 17.098C55.3537 16.7741 55.2157 16.4502 55.1237 16.1263C54.9858 15.8024 54.8478 15.4784 54.7099 15.2008C54.5259 14.8769 54.388 14.5992 54.204 14.2753C54.0201 13.9976 53.7902 13.72 53.6062 13.4424C53.3763 13.1647 53.1464 12.9333 52.9164 12.6557C52.7785 12.5169 52.6405 12.378 52.5026 12.2855C51.8128 11.7302 51.123 11.2675 50.3872 10.8047C50.2952 10.7584 50.2033 10.7122 50.0653 10.6659C49.4675 10.1569 49.0076 10.018 48.5478 9.83294Z" fill="#DF234F"/>
</svg>
